<?xml version="1.0" encoding="utf-8"?>
<!-- Generator: Adobe Illustrator 27.5.0, SVG Export Plug-In . SVG Version: 6.00 Build 0)  -->
<svg version="1.1" xmlns="http://www.w3.org/2000/svg" xmlns:xlink="http://www.w3.org/1999/xlink" x="0px" y="0px"
	 viewBox="0 0 500 500" style="enable-background:new 0 0 500 500;" xml:space="preserve">
<g id="BACKGROUND">
	<rect style="fill:#FFFFFF;" width="500" height="500"/>
	<g>
		<g>
			<rect x="308.577" y="26.907" style="fill:#E6E6E6;" width="170.045" height="4.91"/>
			<rect x="308.577" y="36.411" style="fill:#E6E6E6;" width="170.045" height="4.91"/>
			<rect x="308.577" y="45.915" style="fill:#E6E6E6;" width="170.045" height="4.91"/>
			<rect x="308.577" y="55.419" style="fill:#E6E6E6;" width="170.045" height="4.91"/>
			<rect x="308.577" y="64.924" style="fill:#E6E6E6;" width="170.045" height="4.91"/>
			<rect x="308.577" y="74.427" style="fill:#E6E6E6;" width="170.045" height="4.91"/>
			<rect x="308.577" y="83.932" style="fill:#E6E6E6;" width="170.045" height="4.91"/>
			<rect x="308.577" y="93.436" style="fill:#E6E6E6;" width="170.045" height="4.91"/>
			<rect x="308.577" y="102.94" style="fill:#E6E6E6;" width="170.045" height="4.91"/>
			<rect x="308.577" y="112.444" style="fill:#E6E6E6;" width="170.045" height="4.91"/>
			<rect x="308.577" y="121.948" style="fill:#E6E6E6;" width="170.045" height="4.91"/>
			<rect x="308.577" y="131.452" style="fill:#E6E6E6;" width="170.045" height="4.91"/>
			<rect x="308.577" y="140.956" style="fill:#E6E6E6;" width="170.045" height="4.91"/>
			<rect x="308.577" y="150.46" style="fill:#E6E6E6;" width="170.045" height="4.91"/>
			<rect x="308.577" y="159.964" style="fill:#E6E6E6;" width="170.045" height="4.91"/>
			<rect x="308.577" y="169.468" style="fill:#E6E6E6;" width="170.045" height="4.91"/>
			<rect x="308.577" y="178.972" style="fill:#E6E6E6;" width="170.045" height="4.91"/>
			<rect x="308.577" y="188.477" style="fill:#E6E6E6;" width="170.045" height="4.91"/>
			<rect x="308.577" y="197.981" style="fill:#E6E6E6;" width="170.045" height="4.91"/>
			<rect x="308.577" y="207.485" style="fill:#E6E6E6;" width="170.045" height="4.91"/>
			<rect x="308.577" y="216.989" style="fill:#E6E6E6;" width="170.045" height="4.91"/>
			<rect x="308.577" y="226.493" style="fill:#E6E6E6;" width="170.045" height="4.91"/>
			<rect x="308.577" y="235.997" style="fill:#E6E6E6;" width="170.045" height="4.91"/>
			<rect x="308.577" y="245.501" style="fill:#E6E6E6;" width="170.045" height="4.91"/>
			<rect x="308.577" y="255.005" style="fill:#E6E6E6;" width="170.045" height="4.91"/>
			<rect x="308.577" y="264.509" style="fill:#E6E6E6;" width="170.045" height="4.91"/>
		</g>
		<g>
			
				<ellipse transform="matrix(0.162 -0.9868 0.9868 0.162 27.9333 134.5113)" style="fill:#E6E6E6;" cx="93.166" cy="50.809" rx="36.645" ry="36.645"/>
			
				<ellipse transform="matrix(0.7071 -0.7071 0.7071 0.7071 -8.6394 80.7601)" style="fill:#FFFFFF;" cx="93.166" cy="50.809" rx="32.877" ry="32.877"/>
			
				<polyline style="fill:none;stroke:#E6E6E6;stroke-width:2;stroke-linecap:round;stroke-linejoin:round;stroke-miterlimit:10;" points="
				93.166,26.924 93.166,50.809 103.588,40.387 			"/>
		</g>
		<g>
			<g>
				<rect x="43.627" y="100.663" style="fill:#E6E6E6;" width="99.078" height="123.512"/>
				<path style="fill:#FFFFFF;" d="M112.614,134.085c-5.86-3.217-13.062-1.924-19.448,0.262c-6.386-2.186-13.588-3.48-19.448-0.262
					c-6.548,3.595-9.264,11.977-8.293,19.384c0.971,7.407,4.902,14.058,8.933,20.347c-1.627,9.669,0.618,20.669,5.986,28.874
					c0.79,1.207,2.03,2.519,3.42,2.133c1.459-0.405,1.787-2.309,1.728-3.821c-0.127-3.216-0.741-6.395-0.959-9.606
					c-0.218-3.211-0.013-6.549,1.4-9.441c1.381-2.826,4.11-5.13,7.234-5.364c3.124,0.234,5.853,2.538,7.234,5.364
					c1.413,2.892,1.618,6.23,1.4,9.441c-0.218,3.211-0.832,6.39-0.959,9.606c-0.06,1.513,0.269,3.416,1.728,3.821
					c1.389,0.386,2.63-0.926,3.419-2.133c5.368-8.205,7.613-19.205,5.986-28.874c4.031-6.289,7.961-12.94,8.933-20.347
					C121.879,146.062,119.162,137.68,112.614,134.085z"/>
			</g>
			<polyline style="fill:none;stroke:#FFFFFF;stroke-miterlimit:10;" points="82.304,136.457 68.398,122.55 54.842,122.55 			"/>
			<polyline style="fill:none;stroke:#FFFFFF;stroke-miterlimit:10;" points="108.077,192.039 117.445,201.408 133.23,201.408 			
				"/>
			<polyline style="fill:none;stroke:#FFFFFF;stroke-miterlimit:10;" points="112.253,149.126 124.246,137.133 136.542,137.133 			
				"/>
			<polyline style="fill:none;stroke:#FFFFFF;stroke-miterlimit:10;" points="76.095,172.654 61.956,186.794 51.53,186.794 			"/>
			<g>
				<line style="fill:none;stroke:#FFFFFF;stroke-miterlimit:10;" x1="124.397" y1="142.362" x2="136.542" y2="142.362"/>
				<line style="fill:none;stroke:#FFFFFF;stroke-miterlimit:10;" x1="124.397" y1="140.057" x2="136.542" y2="140.057"/>
			</g>
			<g>
				<line style="fill:none;stroke:#FFFFFF;stroke-miterlimit:10;" x1="54.842" y1="127.132" x2="66.987" y2="127.132"/>
				<line style="fill:none;stroke:#FFFFFF;stroke-miterlimit:10;" x1="54.842" y1="124.828" x2="66.987" y2="124.828"/>
			</g>
			<g>
				<line style="fill:none;stroke:#FFFFFF;stroke-miterlimit:10;" x1="51.53" y1="191.274" x2="61.917" y2="191.274"/>
				<line style="fill:none;stroke:#FFFFFF;stroke-miterlimit:10;" x1="51.53" y1="189.303" x2="61.917" y2="189.303"/>
			</g>
			<g>
				<line style="fill:none;stroke:#FFFFFF;stroke-miterlimit:10;" x1="122.843" y1="205.561" x2="133.23" y2="205.561"/>
				<line style="fill:none;stroke:#FFFFFF;stroke-miterlimit:10;" x1="122.843" y1="203.591" x2="133.23" y2="203.591"/>
			</g>
		</g>
		<g>
			<rect x="306.912" y="255.585" style="fill:#BFBFBF;" width="132.831" height="211.837"/>
			<rect x="306.912" y="255.585" style="fill:#D9D9D9;" width="91.901" height="211.837"/>
			<g>
				<rect x="309.881" y="262.45" style="fill:none;stroke:#BFBFBF;stroke-miterlimit:10;" width="84.703" height="60.076"/>
				<rect x="343.003" y="318.923" style="fill:#BFBFBF;" width="18.46" height="3.603"/>
			</g>
			<g>
				<rect x="309.881" y="327.133" style="fill:none;stroke:#BFBFBF;stroke-miterlimit:10;" width="84.703" height="60.076"/>
				<rect x="343.003" y="383.605" style="fill:#BFBFBF;" width="18.46" height="3.603"/>
			</g>
			<g>
				<rect x="309.881" y="391.816" style="fill:none;stroke:#BFBFBF;stroke-miterlimit:10;" width="84.703" height="60.076"/>
				<rect x="343.003" y="448.288" style="fill:#BFBFBF;" width="18.46" height="3.603"/>
			</g>
		</g>
		<g>
			<path style="fill:#BFBFBF;" d="M362.085,246.369c2.184,5.401,7.469,9.217,13.653,9.217h32.198c6.184,0,11.47-3.815,13.653-9.217
				H362.085z"/>
			<g>
				<path style="fill:#BFBFBF;" d="M349.622,255.585h-2.646c-1.134,0-2.054-0.92-2.054-2.054v-4.538c0-1.134,0.92-2.054,2.054-2.054
					h2.646c1.134,0,2.054,0.92,2.054,2.054v4.538C351.676,254.666,350.757,255.585,349.622,255.585z"/>
				<path style="fill:#BFBFBF;" d="M351.255,247.236h-5.911c-0.233,0-0.422-0.189-0.422-0.421v-0.838
					c0-0.233,0.189-0.422,0.422-0.422h5.911c0.233,0,0.421,0.189,0.421,0.422v0.838
					C351.676,247.047,351.487,247.236,351.255,247.236z"/>
			</g>
			<g>
				<path style="fill:#BFBFBF;" d="M358.3,255.585h-2.646c-1.134,0-2.054-0.92-2.054-2.054v-4.538c0-1.134,0.92-2.054,2.054-2.054
					h2.646c1.134,0,2.054,0.92,2.054,2.054v4.538C360.354,254.666,359.434,255.585,358.3,255.585z"/>
				<path style="fill:#BFBFBF;" d="M359.932,247.236h-5.911c-0.233,0-0.422-0.189-0.422-0.421v-0.838
					c0-0.233,0.189-0.422,0.422-0.422h5.911c0.233,0,0.421,0.189,0.421,0.422v0.838
					C360.354,247.047,360.165,247.236,359.932,247.236z"/>
			</g>
			<path style="fill:#BFBFBF;" d="M378.875,249.904c-3.264-3.241-6.529-6.483-9.794-9.724c-0.457-0.454-1.165,0.253-0.707,0.707
				c3.265,3.241,6.529,6.483,9.794,9.724C378.625,251.065,379.333,250.358,378.875,249.904z"/>
			<path style="fill:#BFBFBF;" d="M387.297,249.06c-1.612-2.105-7.224-8.644-7.545-8.971c-0.892-0.911-3.466,0.076-4.373,0.972
				c0.8-0.263,2.334-0.788,3.074-0.387c0.74,0.401,6.303,6.828,7.953,9.798"/>
			<g>
				<path style="fill:#BFBFBF;" d="M397.007,250.353c-3.265-3.241-6.529-6.483-9.794-9.724c-0.457-0.454-1.165,0.253-0.707,0.707
					c3.265,3.241,6.529,6.483,9.794,9.724C396.757,251.514,397.464,250.808,397.007,250.353z"/>
				<path style="fill:#BFBFBF;" d="M388.938,240.483c0,1.425-1.155,2.581-2.581,2.581c-1.425,0-2.58-1.155-2.58-2.581
					c0-1.425,1.155-2.58,2.58-2.58C387.783,237.903,388.938,239.058,388.938,240.483z"/>
			</g>
		</g>
	</g>
</g>
<g id="OBJECTS">
	<g>
		<g>
			<polygon style="fill:#BFBFBF;" points="207.533,250 204.533,250 204.533,53.16 267.828,53.16 296.765,94.689 294.304,96.404 
				266.261,56.16 207.533,56.16 			"/>
		</g>
		<g>
			<g>
				<path style="fill:#BFBFBF;" d="M139.724,282.98c-0.269,10.569-0.806,21.131-1.618,31.673
					c-0.403,5.229-0.872,10.454-1.409,15.671c-0.271,2.629-0.558,5.257-0.862,7.882c-0.227,1.955-0.439,3.904-1.117,5.765
					c-0.528,1.448-1.405,3.029-2.901,3.65c-1.882,0.781-3.851-0.297-4.931-1.867c-1.331-1.936-1.373-4.415-1.353-6.677
					c0.024-2.614,0.082-5.228,0.153-7.84c0.284-10.484,0.882-20.96,1.793-31.408c0.914-10.486,2.143-20.944,3.689-31.356
					c0.193-1.302,0.392-2.603,0.595-3.903c0.098-0.63-0.865-0.901-0.964-0.266c-1.68,10.773-3.031,21.596-4.042,32.453
					c-1.011,10.852-1.684,21.736-2.017,32.63c-0.084,2.754-0.147,5.509-0.188,8.265c-0.035,2.386-0.163,4.899,0.72,7.165
					c0.693,1.777,2.129,3.405,4.022,3.913c1.638,0.439,3.342-0.101,4.516-1.298c2.774-2.829,2.836-7.525,3.25-11.194
					c0.615-5.458,1.156-10.925,1.625-16.397c0.933-10.904,1.574-21.834,1.923-32.772c0.043-1.362,0.082-2.725,0.117-4.087
					C140.74,282.336,139.74,282.337,139.724,282.98z"/>
				<path style="fill:#BFBFBF;" d="M149.153,282.98c-0.269,10.569-0.806,21.131-1.618,31.673
					c-0.403,5.229-0.873,10.454-1.409,15.671c-0.27,2.629-0.558,5.257-0.862,7.882c-0.227,1.955-0.439,3.904-1.117,5.765
					c-0.528,1.448-1.405,3.029-2.901,3.65c-1.882,0.781-3.851-0.297-4.931-1.867c-1.331-1.936-1.373-4.415-1.352-6.677
					c0.024-2.614,0.082-5.228,0.153-7.84c0.284-10.484,0.882-20.96,1.793-31.408c0.914-10.486,2.143-20.944,3.689-31.356
					c0.193-1.302,0.392-2.603,0.594-3.903c0.098-0.63-0.865-0.901-0.964-0.266c-1.68,10.773-3.031,21.596-4.042,32.453
					c-1.011,10.852-1.684,21.736-2.017,32.63c-0.084,2.754-0.147,5.509-0.188,8.265c-0.035,2.386-0.163,4.899,0.72,7.165
					c0.693,1.777,2.129,3.405,4.022,3.913c1.638,0.439,3.342-0.101,4.516-1.298c2.774-2.829,2.836-7.525,3.25-11.194
					c0.615-5.458,1.156-10.925,1.625-16.397c0.933-10.904,1.574-21.834,1.923-32.772c0.043-1.362,0.082-2.725,0.117-4.087
					C150.169,282.336,149.169,282.337,149.153,282.98z"/>
				<path style="fill:#BFBFBF;" d="M158.582,282.98c-0.269,10.569-0.806,21.131-1.618,31.673
					c-0.403,5.229-0.872,10.454-1.409,15.671c-0.27,2.629-0.558,5.257-0.862,7.882c-0.227,1.955-0.439,3.904-1.117,5.765
					c-0.528,1.448-1.405,3.029-2.901,3.65c-1.882,0.781-3.851-0.297-4.931-1.867c-1.331-1.936-1.373-4.415-1.352-6.677
					c0.024-2.614,0.082-5.228,0.153-7.84c0.284-10.484,0.882-20.96,1.793-31.408c0.914-10.486,2.143-20.944,3.689-31.356
					c0.193-1.302,0.392-2.603,0.594-3.903c0.098-0.63-0.865-0.901-0.964-0.266c-1.68,10.773-3.031,21.596-4.042,32.453
					c-1.011,10.852-1.684,21.736-2.017,32.63c-0.084,2.754-0.147,5.509-0.188,8.265c-0.035,2.386-0.163,4.899,0.72,7.165
					c0.693,1.777,2.129,3.405,4.022,3.913c1.638,0.439,3.342-0.101,4.516-1.298c2.774-2.829,2.837-7.525,3.25-11.194
					c0.615-5.458,1.156-10.925,1.625-16.397c0.933-10.904,1.574-21.834,1.923-32.772c0.043-1.362,0.082-2.725,0.117-4.087
					C159.599,282.336,158.598,282.337,158.582,282.98z"/>
				<path style="fill:#BFBFBF;" d="M168.011,282.98c-0.269,10.569-0.806,21.131-1.618,31.673
					c-0.403,5.229-0.872,10.454-1.409,15.671c-0.27,2.629-0.558,5.257-0.862,7.882c-0.227,1.955-0.439,3.904-1.117,5.765
					c-0.528,1.448-1.405,3.029-2.901,3.65c-1.882,0.781-3.851-0.297-4.931-1.867c-1.331-1.936-1.373-4.415-1.352-6.677
					c0.024-2.614,0.082-5.228,0.153-7.84c0.284-10.484,0.882-20.96,1.793-31.408c0.914-10.486,2.143-20.944,3.689-31.356
					c0.193-1.302,0.392-2.603,0.595-3.903c0.098-0.63-0.865-0.901-0.964-0.266c-1.68,10.773-3.031,21.596-4.042,32.453
					c-1.011,10.852-1.684,21.736-2.017,32.63c-0.084,2.754-0.147,5.509-0.188,8.265c-0.036,2.386-0.163,4.899,0.72,7.165
					c0.693,1.777,2.129,3.405,4.022,3.913c1.638,0.439,3.342-0.101,4.516-1.298c2.774-2.829,2.836-7.525,3.25-11.194
					c0.615-5.458,1.156-10.925,1.625-16.397c0.933-10.904,1.574-21.834,1.923-32.772c0.043-1.362,0.082-2.725,0.117-4.087
					C169.028,282.336,168.028,282.337,168.011,282.98z"/>
			</g>
			<g>
				<path style="fill:#D9D9D9;" d="M98.418,241.685c0,4.852,4.169,8.785,9.313,8.785h151.991c5.143,0,9.313-3.933,9.313-8.785
					v-7.495H98.418V241.685z"/>
				<g>
					<g>
						<path style="fill:#BFBFBF;" d="M167.923,288.63h-45.981c-4.585,0-4.817-9.942-4.817-11.936V266.22h55.616v10.475
							C172.74,278.688,172.508,288.63,167.923,288.63z M122.43,284.63h45.005c0.526-0.87,1.305-3.662,1.305-7.936v-6.475h-47.616
							v6.475C121.125,280.968,121.904,283.76,122.43,284.63z"/>
					</g>
				</g>
				<g>
					<g>
						<path style="fill:#BFBFBF;" d="M125.685,286.318v0.624c0,3.41,2.764,6.174,6.175,6.174h26.613c3.41,0,6.174-2.764,6.174-6.174
							v-0.624c0-3.41-2.764-6.175-6.174-6.175h-26.613C128.449,280.144,125.685,282.908,125.685,286.318z"/>
					</g>
				</g>
				<rect x="108.077" y="250.47" style="fill:#BFBFBF;" width="160.957" height="4.331"/>
				<path style="fill:#D9D9D9;" d="M108.077,254.801v9.048c0,4.852,3.933,8.785,8.785,8.785h143.387
					c4.852,0,8.785-3.933,8.785-8.785v-9.048H108.077z"/>
			</g>
		</g>
		<g>
			<g>
				<g>
					<path style="fill:#E09680;" d="M318.518,213.12c-18.97-5.783-34.296-10.864-48.101-9.525c-2.849,4.251-4.884,9.28-5.451,14.383
						c-0.1,0.899,0.417,1.759,1.271,2.057c14.647,5.129,35.213,7.914,51.428,5.288C319.813,221.18,319.669,217.04,318.518,213.12z"
						/>
					<path style="fill:#EEEEEE;" d="M317.665,225.324c2.633-0.426,5.156-0.991,7.515-1.716l1.756-7.967
						c-2.885-0.844-5.689-1.69-8.417-2.522C319.669,217.04,319.813,221.18,317.665,225.324z"/>
					<g>
						<g>
							<path style="fill:#EEEEEE;" d="M350.511,215.174c0.549,0.324,1.103,0.675,1.48,1.189c0.377,0.514,0.545,1.229,0.257,1.798
								c-0.347,0.686-1.238,0.936-1.995,0.804c-0.757-0.132-1.424-0.557-2.099-0.924c-2.308-1.254-4.941-1.903-7.568-1.865
								c-1.355,0.02-2.716,0.218-4.058,0.038c-4.639-0.621-4.548-6.055,0.421-5.592C341.685,211.064,346.431,212.77,350.511,215.174
								z"/>
							<path style="fill:#EEEEEE;" d="M350.085,219.784c0.549,0.324,1.103,0.675,1.48,1.189c0.378,0.514,0.545,1.229,0.257,1.798
								c-0.347,0.685-1.238,0.936-1.995,0.804c-0.757-0.132-1.424-0.557-2.099-0.924c-2.308-1.254-4.941-1.903-7.568-1.865
								c-1.354,0.02-2.715,0.218-4.058,0.038c-4.639-0.621-4.548-6.055,0.421-5.592
								C341.259,215.673,346.005,217.379,350.085,219.784z"/>
							<path style="fill:#EEEEEE;" d="M346.835,222.907c0.549,0.324,1.103,0.675,1.48,1.189c0.378,0.514,0.545,1.229,0.257,1.798
								c-0.347,0.686-1.238,0.936-1.995,0.804c-0.757-0.132-1.424-0.557-2.099-0.924c-2.308-1.254-4.941-1.903-7.568-1.865
								c-1.354,0.02-2.715,0.218-4.058,0.038c-4.639-0.62-4.548-6.055,0.421-5.592C338.01,218.797,342.756,220.502,346.835,222.907z
								"/>
							<path style="fill:#EEEEEE;" d="M342.406,225.264c0.448,0.264,0.901,0.551,1.209,0.97c0.308,0.419,0.445,1.004,0.21,1.468
								c-0.283,0.56-1.01,0.764-1.628,0.657c-0.618-0.108-1.163-0.455-1.714-0.754c-1.884-1.024-4.034-1.553-6.178-1.522
								c-1.106,0.016-2.217,0.178-3.313,0.031c-3.788-0.507-3.713-4.943,0.344-4.565C335.2,221.908,339.075,223.301,342.406,225.264
								z"/>
							<path style="fill:#EEEEEE;" d="M336.341,210.597c-2.928,0.193-4.617,0.505-7.382,1.49c-2.764,0.984-5.345,2.832-6.578,5.494
								c-1.233,2.662-0.808,6.181,1.453,8.051c1.347,1.114,3.156,1.539,4.904,1.541c3.619,0.004,7.199-1.756,9.406-4.624
								c2.207-2.868,2.992-6.779,2.061-10.277L336.341,210.597z"/>
						</g>
					</g>
					<path style="fill:#D7CCC8;" d="M343.037,214.119c-1.337,2.726-4.452,2.379-6.969,1.897c-0.279-0.053-0.496,0.071-0.601,0.335
						c-0.735,1.844-2.279,3.362-4.172,3.993c-1.772,0.59-3.541,0.347-5.281-0.204c-0.219-0.069-0.329,0.233-0.155,0.355
						c1.688,1.182,4.053,1.297,5.957,0.627c1.997-0.703,3.533-2.196,4.402-4.096c2.707,0.463,6.657,0.693,7.662-2.538
						C344.031,214,343.272,213.641,343.037,214.119z"/>
				</g>
				<g>
					<path style="fill:#E09680;" d="M267.707,174.054c2.893,6.712,11.494,33.222,11.532,37.385
						c0.038,4.163-10.996,10.142-14.021,8.03c-2.126-1.484-3.536-4.133-4.854-6.67c-4.046-7.794-7.283-16.224-11.329-24.018
						L267.707,174.054z"/>
					<path style="fill:#26A69A;" d="M269.885,176.986c1.732-1.603-8.148-21.216-12.117-27.33
						c-2.164-3.334-8.155-16.121-13.082-14.011c-0.327,0.14-0.604,0.346-0.844,0.598c8.736,14.304,16.052,29.149,22.152,44.513
						C266.643,180.191,269.254,177.571,269.885,176.986z"/>
					<path style="fill:#00897B;" d="M243.841,136.242c-3.155,3.299,0.641,15.525,0.542,19.3c-0.163,6.247,0.208,12.509,1.108,18.694
						c0.217,1.49,4.008,17.738,4.102,17.689c5.883-3.058,11.399-6.818,16.401-11.17
						C259.894,165.392,252.578,150.546,243.841,136.242z"/>
				</g>
			</g>
			<g>
				<g>
					<g>
						<path style="fill:#00897B;" d="M235.19,258.841c-35.62,3.918-35.096,24.299-35.096,24.299l14.385,84.949l7.552,74.019h23.966
							C253.235,344.817,235.19,258.841,235.19,258.841z"/>
						<path style="fill:#26A69A;" d="M209.666,281.972c0,0,15.845-10.152,17.701-19.035l-59.479,2.115
							c0,0-13.677,114.721-13.424,177.056h24.501L209.666,281.972z"/>
						<path style="fill:#FFAB91;" d="M159.591,442.108c0.006,2.318,0.021,4.571,0.05,6.735h13.445l0.751-6.735H159.591z"/>
						<path style="fill:#FFAB91;" d="M226.159,442.108c0.005,2.318,0.021,4.571,0.049,6.735h13.445l0.751-6.735H226.159z"/>
						<path style="fill:#00897B;" d="M221.918,271.863c3.145-3.158,5.898-6.761,6.612-10.18l-59.853-9.418
							c0,0-0.744,13.036-0.973,15.722C185.624,272.157,203.955,273.716,221.918,271.863z"/>
					</g>
					<g>
						<path style="fill:#015369;" d="M173.847,447.835l-15.736-0.432c-4.385,4.563-7.511,10.304-9.04,16.443h28.412
							C176.909,458.383,175.737,453.008,173.847,447.835z"/>
						<path style="fill:#EEEEEE;" d="M149.071,463.846c-0.146,0.588-0.297,1.175-0.414,1.77c-0.183,0.933,0.515,1.807,1.465,1.807
							h26.049c0.868,0,1.565-0.738,1.497-1.603c-0.052-0.659-0.116-1.317-0.186-1.973H149.071z"/>
					</g>
					<g>
						<path style="fill:#015369;" d="M225.31,447.835l15.736-0.432c4.385,4.563,30.791,10.304,32.321,16.443h-51.692
							C222.249,458.383,223.42,453.008,225.31,447.835z"/>
						<path style="fill:#EEEEEE;" d="M273.366,463.846c0.146,0.588,0.297,1.175,0.414,1.77c0.183,0.933-0.515,1.807-1.465,1.807
							h-49.329c-0.868,0-1.565-0.738-1.497-1.603c0.052-0.659,0.116-1.317,0.185-1.973H273.366z"/>
					</g>
				</g>
				<path style="fill:#00897B;" d="M172.061,374.317c-1.951-3.353-3.992-6.619-5.608-10.156c-1.634-3.575-2.801-7.291-3.984-11.031
					c-0.145-0.457-0.795-0.267-0.71,0.196c0.708,3.883,2.115,7.663,3.71,11.262c1.592,3.591,3.441,7.185,5.899,10.264
					C171.686,375.25,172.307,374.74,172.061,374.317z"/>
				<path style="fill:#00897B;" d="M166.789,373.236c-0.481-0.788-0.978-1.562-1.475-2.34c-0.095-0.149-0.313-0.019-0.236,0.138
					c0.401,0.816,0.798,1.63,1.215,2.437c0.413,0.797,0.785,1.654,1.325,2.373c0.085,0.114,0.213,0.174,0.352,0.115
					c0.117-0.049,0.216-0.202,0.163-0.333C167.795,374.782,167.263,374.013,166.789,373.236z"/>
			</g>
			<path style="fill:#26A69A;" d="M255.157,148.339c0.579-4.927-1.766-9.707-5.956-12.363c-8.89-5.635-19.367-8.782-29.886-9.901
				c-9.654-1.027-19.386-0.449-29.02,0.913c-6.278,0.887-10.966,6.206-11.039,12.546c-0.433,37.781-4.637,75.997-12.7,112.807
				c23.198,12.466,47.243,19.258,71.842,14.38C245.28,228.792,250.64,186.762,255.157,148.339z"/>
			<path style="fill:#00897B;" d="M224.771,265.04c-3.819-0.271-7.622-0.413-11.42-0.956c-3.707-0.53-7.377-1.313-10.978-2.338
				c-7.309-2.079-14.355-5.147-20.848-9.095c-3.673-2.233-7.129-4.754-10.511-7.401c-0.264-0.207-0.575,0.169-0.333,0.397
				c5.569,5.26,12.268,9.441,19.198,12.661c6.985,3.246,14.438,5.515,22.046,6.719c4.191,0.663,8.571,1.16,12.817,0.868
				C225.216,265.863,225.265,265.075,224.771,265.04z"/>
			<path style="fill:#00897B;" d="M230.875,134.971c-1.385,2.993-5.872,3.043-8.648,2.61c-3.199-0.499-6.238-1.971-8.61-4.175
				c-1.368-1.271-2.487-2.765-3.315-4.438c-0.286-0.577-1.148-0.071-0.864,0.505c3.133,6.326,10.7,10.382,17.716,9.04
				c1.846-0.353,3.756-1.25,4.584-3.037C232.007,134.896,231.146,134.387,230.875,134.971z"/>
			<g>
				<path style="fill:#26A69A;" d="M200.277,142.174c-1.209-2.939-2.448-5.93-4.484-8.37c-2.036-2.441-5.032-4.29-8.208-4.164
					c-3.705,0.147-6.898,2.985-8.444,6.356c-0.245,0.534-0.444,1.082-0.625,1.636c1.09,14.759,5.73,29.378,12.285,42.926
					c6.081-5.162,13.096-8.699,20.229-12.238C207.446,159.605,203.862,150.889,200.277,142.174z"/>
				<g>
					<path style="fill:#42B2A7;" d="M187.615,183.502c0.639,1.688,1.275,3.326,1.896,4.886c7.78-5.428,15.303-10.775,23.445-15.383
						c-0.642-1.561-1.284-3.123-1.926-4.684C202.615,172.495,194.36,176.657,187.615,183.502z"/>
					<path style="fill:#208C82;" d="M177.514,146.901c0.204,7.941,5.241,23.763,10.101,36.601c1.028-1.043,2.094-2.016,3.186-2.944
						c-6.554-13.548-11.195-28.167-12.285-42.926C177.557,140.579,177.434,143.781,177.514,146.901z"/>
					<path style="fill:#FFAB91;" d="M218.809,187.233c-1.459-3.547-2.917-7.094-4.376-10.64
						c-6.171,5.156-12.085,10.587-18.267,15.95c2.212,4.667,4.651,9.177,7.103,13.788c2.379,4.473,5.458,6.681,10.562,6.69
						c4.855,0.008,37.629-15.952,53.214-31.121c-2.45-3.652-4.652-7.425-5.539-11.533
						C245.222,175.444,234.394,177.432,218.809,187.233z"/>
					<path style="fill:#EEEEEE;" d="M266.513,168.76c-1.736,0.577-3.389,1.101-5.007,1.606c0.886,4.108,3.089,7.88,5.539,11.533
						c1.608-1.565,3.034-3.122,4.226-4.652C269.736,174.52,268.046,171.488,266.513,168.76z"/>
					<path style="fill:#FF8A65;" d="M212.957,173.004c-8.142,4.609-11.97,7.374-19.749,12.803c0.917,2.301,1.914,4.535,2.958,6.736
						c6.182-5.363,12.097-10.793,18.267-15.95C213.941,175.396,213.449,174.2,212.957,173.004z"/>
				</g>
				<path style="fill:#00897B;" d="M213.671,172.408c-3.128-7.488-5.896-15.124-8.293-22.877c-0.19-0.613-1.155-0.351-0.964,0.266
					c2.397,7.753,5.165,15.389,8.293,22.877C212.951,173.258,213.919,173.002,213.671,172.408z"/>
				<path style="fill:#015369;" d="M305.184,177.493l-28.537-14.539c-0.808-0.412-1.129-1.401-0.718-2.209l0,0
					c0.412-0.808,1.401-1.129,2.209-0.718l28.537,14.539c0.808,0.412,1.129,1.401,0.718,2.209l0,0
					C306.981,177.584,305.992,177.905,305.184,177.493z"/>
				<g>
					<g>
						<path style="fill:#EEEEEE;" d="M293.102,166.631c0.56,0.304,1.126,0.636,1.521,1.137s0.587,1.21,0.319,1.788
							c-0.323,0.697-1.204,0.979-1.965,0.873c-0.761-0.106-1.442-0.507-2.13-0.85c-2.35-1.173-5.004-1.73-7.628-1.601
							c-1.353,0.067-2.706,0.312-4.054,0.179c-4.658-0.459-4.755-5.893,0.227-5.603
							C284.139,162.829,288.942,164.369,293.102,166.631z"/>
						<path style="fill:#EEEEEE;" d="M292.836,171.252c0.56,0.305,1.126,0.636,1.521,1.137c0.395,0.5,0.587,1.21,0.319,1.788
							c-0.323,0.697-1.204,0.979-1.965,0.873c-0.761-0.106-1.442-0.507-2.13-0.85c-2.35-1.173-5.004-1.73-7.628-1.601
							c-1.353,0.067-2.706,0.312-4.054,0.179c-4.658-0.459-4.755-5.893,0.227-5.603C283.873,167.45,288.676,168.99,292.836,171.252z
							"/>
						<path style="fill:#EEEEEE;" d="M289.697,174.486c0.56,0.305,1.126,0.636,1.521,1.137c0.395,0.5,0.587,1.21,0.319,1.788
							c-0.323,0.697-1.204,0.979-1.965,0.873c-0.761-0.106-1.443-0.507-2.13-0.85c-2.35-1.173-5.004-1.73-7.628-1.601
							c-1.353,0.067-2.706,0.312-4.054,0.179c-4.658-0.459-4.755-5.894,0.227-5.603
							C280.734,170.684,285.536,172.224,289.697,174.486z"/>
						<path style="fill:#EEEEEE;" d="M285.352,176.995c0.457,0.249,0.919,0.52,1.242,0.928c0.323,0.408,0.479,0.988,0.26,1.46
							c-0.264,0.569-0.983,0.799-1.605,0.713c-0.621-0.086-1.178-0.414-1.739-0.694c-1.919-0.958-4.086-1.413-6.228-1.307
							c-1.105,0.055-2.21,0.255-3.31,0.146c-3.803-0.375-3.882-4.812,0.185-4.575C278.034,173.891,281.955,175.148,285.352,176.995z
							"/>
						<path style="fill:#EEEEEE;" d="M278.782,162.547c-2.919,0.294-4.597,0.665-7.325,1.745c-2.728,1.079-5.243,3.015-6.383,5.719
							c-1.14,2.703-0.593,6.206,1.731,7.996c1.385,1.067,3.207,1.429,4.955,1.37c3.617-0.122,7.134-2.005,9.24-4.948
							c2.106-2.943,2.755-6.879,1.703-10.342L278.782,162.547z"/>
					</g>
				</g>
			</g>
			<g>
				<g>
					<g>
						<g>
							<path style="fill:#FFAB91;" d="M216.716,102.248c-0.737,8.076-2.292,16.076-4.633,23.84c-0.473,1.57-0.064,3.275,1.102,4.428
								c3.218,3.184,7.688,5.111,12.185,5.2c2.286,0.045,4.201-1.738,4.398-4.016c0.453-5.228,1.158-10.146,2.191-15.459
								C228.54,109.965,223.057,105.551,216.716,102.248z"/>
							<path style="fill:#FF8A65;" d="M231.96,116.243c-3.42-6.278-8.903-10.692-15.244-13.994
								c-0.194,2.125-0.448,4.244-0.755,6.356c2.896,7.3,7.769,14.997,14.19,19.447C230.592,124.139,231.171,120.301,231.96,116.243
								z"/>
						</g>
						<path style="fill:#873C26;" d="M215.517,100.017c-0.33-3.62-0.66-7.241-0.99-10.861c-0.173-1.892-0.335-3.86,0.34-5.636
							c0.675-1.775,3.465-6.076,5.341-5.783c6.21-6.453,14.875-6.241,23.458-3.687c2.952,0.878,5.859,2.428,7.522,5.021
							c1.919,2.994,1.862,6.842,1.24,10.343c-0.741,4.172-2.359,8.451-5.74,11.005c-3.219,2.432-7.491,2.907-11.526,2.908
							C228.324,103.331,222.002,102.185,215.517,100.017z"/>
						<path style="fill:#6C301E;" d="M216.283,100.698c-0.305-3.341-0.609-6.681-0.914-10.022c-0.159-1.745-0.309-3.562,0.313-5.2
							c0.623-1.638,3.197-5.607,4.929-5.336c5.73-5.955,13.726-5.759,21.647-3.402c2.724,0.811,5.407,2.241,6.941,4.633
							c1.771,2.763,1.718,6.313,1.144,9.545c-0.684,3.85-2.177,7.798-5.296,10.155c-2.97,2.244-6.913,2.682-10.635,2.684
							C228.101,103.756,222.267,102.698,216.283,100.698z"/>
						<g>
							<path style="fill:#FFAB91;" d="M247.14,94.068c-0.415,11.382-8.541,31.196-14.543,29.478
								c-8.105-2.597-14.615-10.494-15.437-18.965c0.014,0.145-1.017,0.509-1.97,0.288c-0.941-0.218-2.012-1.554-2.399-2.422
								c-0.748-1.677-1.371-4.198,0.004-5.736c1.654-1.85,4.607-1.781,5.408,0.859c0.7-4.735,3.238-8.738,5.623-12.889
								c7.194-1.886,16.392-0.46,22.719,3.448C246.961,89.715,247.199,92.43,247.14,94.068z"/>
							<path style="fill:#6C301E;" d="M235.114,92.73c-1.404-2.579-6.598-1.852-8.662-0.701c-0.377,0.21-0.835,0.484-0.875,0.962
								c-0.021,0.248,0.077,0.483,0.311,0.595c0.53,0.254,1.138-0.118,1.643-0.281c0.669-0.216,1.36-0.348,2.062-0.383
								c0.866-0.044,1.74,0.053,2.574,0.289c0.807,0.228,1.53,0.746,2.381,0.763C235.212,93.987,235.361,93.182,235.114,92.73z"/>
							<path style="fill:#3B1411;" d="M231.813,96.269c-0.021-0.143-0.076-0.273-0.166-0.39c-0.081-0.124-0.185-0.219-0.313-0.286
								c-0.119-0.091-0.254-0.146-0.405-0.166c-0.099-0.004-0.198-0.007-0.297-0.011c-0.194,0.02-0.371,0.087-0.531,0.199
								c-0.07,0.064-0.139,0.128-0.209,0.192c-0.128,0.154-0.209,0.329-0.244,0.526l-0.02,0.117
								c-0.031,0.15-0.024,0.295,0.022,0.438c0.021,0.143,0.076,0.273,0.166,0.39c0.081,0.124,0.185,0.219,0.313,0.286
								c0.119,0.091,0.254,0.146,0.405,0.166l0.297,0.01c0.194-0.02,0.371-0.087,0.531-0.199c0.07-0.064,0.139-0.128,0.209-0.192
								c0.128-0.154,0.209-0.329,0.243-0.526l0.02-0.117C231.866,96.557,231.859,96.411,231.813,96.269z"/>
							<path style="fill:#3B1411;" d="M243.667,98.989c-0.021-0.143-0.076-0.273-0.166-0.39c-0.081-0.124-0.185-0.219-0.313-0.286
								c-0.119-0.091-0.254-0.146-0.405-0.166c-0.099-0.004-0.198-0.007-0.297-0.011c-0.194,0.02-0.371,0.087-0.531,0.199
								c-0.07,0.064-0.139,0.128-0.209,0.192c-0.128,0.154-0.209,0.329-0.244,0.526l-0.02,0.117
								c-0.031,0.15-0.024,0.295,0.022,0.437c0.021,0.143,0.076,0.273,0.166,0.39c0.081,0.124,0.185,0.219,0.313,0.286
								c0.119,0.091,0.254,0.146,0.405,0.166l0.297,0.011c0.194-0.02,0.371-0.087,0.531-0.199c0.07-0.064,0.139-0.128,0.209-0.192
								c0.128-0.154,0.209-0.329,0.243-0.526l0.02-0.117C243.72,99.277,243.713,99.131,243.667,98.989z"/>
							<path style="fill:#FF8A65;" d="M240.25,105.784c0.194-1.814,0.142-3.649-0.148-5.451c-0.149-0.922-0.736-2.222-0.231-3.044
								c0.501-0.816,1.316-1.457,1.904-2.208c0.256-0.326-0.169-0.849-0.513-0.557c-0.643,0.543-1.199,1.209-1.74,1.852
								c-0.405,0.481-0.704,0.942-0.665,1.596c0.049,0.814,0.372,1.628,0.503,2.436c0.139,0.861,0.215,1.733,0.236,2.605
								c0.04,1.66-0.087,3.431-0.552,5.034c-0.569,1.965-3.676,0.341-4.989,0.269c-0.352-0.019-0.657,0.425-0.317,0.685
								c0.655,0.501,1.655,0.639,2.456,0.736c0.748,0.091,1.672,0.201,2.406-0.024C240.068,109.261,240.117,107.026,240.25,105.784z
								"/>
							<path style="fill:#6C301E;" d="M246.359,96.272c-0.283-0.896-1.122-1.475-1.961-1.857c-0.816-0.372-1.684-0.558-2.58-0.491
								c-0.413,0.031-0.726,0.399-0.74,0.798c-0.024,0.68,0.535,0.8,1.061,0.896c0.709,0.13,1.369,0.338,1.981,0.73
								c0.411,0.263,2.533,1.819,2.317,0.273C246.421,96.501,246.394,96.384,246.359,96.272z"/>
							<path style="fill:#3B1411;" d="M234.806,114.423c-0.672-0.34-1.475-0.281-2.209-0.419c-0.745-0.141-1.457-0.375-2.151-0.678
								c-0.675-0.295-1.319-0.65-1.912-1.088c-0.307-0.227-0.599-0.474-0.892-0.719c-0.279-0.233-0.566-0.566-0.943-0.613
								c-0.249-0.031-0.408,0.15-0.413,0.385c-0.008,0.395,0.342,0.747,0.591,1.022c0.275,0.304,0.575,0.575,0.897,0.828
								c0.673,0.53,1.418,0.995,2.201,1.346c0.765,0.343,1.588,0.59,2.412,0.741c0.825,0.151,1.728,0.303,2.478-0.133
								C235.133,114.941,235.048,114.545,234.806,114.423z"/>
							<path style="fill:#FF8A65;" d="M232.652,116.523c-0.306-0.156-0.727-0.125-1.063-0.182c-0.304-0.051-0.677-0.138-0.927-0.219
								c-0.318-0.102-0.632-0.226-0.936-0.362c-0.333-0.149-0.635-0.36-1.007-0.39c-0.393-0.032-0.598,0.336-0.421,0.668
								c0.191,0.358,0.571,0.542,0.916,0.729c0.327,0.177,0.665,0.322,1.018,0.439c0.368,0.122,0.74,0.227,1.121,0.299
								c0.388,0.074,0.88,0.193,1.258,0.051C233.073,117.381,233.077,116.739,232.652,116.523z"/>
							<path style="fill:#FF8A65;" d="M216.591,101.596c-0.363,0.058-0.817-0.199-0.826-0.613c-0.005-0.211,0.129-0.362,0.282-0.499
								c0.148-0.132,0.345-0.191,0.523-0.163c0.283,0.045,0.547-0.191,0.516-0.481c-0.129-1.225-0.859-2.581-2.231-2.676
								c-0.608-0.042-1.209,0.203-1.557,0.716c-0.163,0.24-0.237,0.521-0.213,0.808c0.014,0.166,0.144,0.611,0.404,0.445
								c0.155-0.099,0.143-0.287,0.215-0.437c0.076-0.16,0.172-0.307,0.295-0.435c0.249-0.259,0.608-0.313,0.946-0.221
								c0.676,0.184,1.024,0.801,1.178,1.443c-0.665,0.173-1.178,0.788-1.11,1.525c0.073,0.799,0.858,1.448,1.655,1.348
								C217.156,102.295,217.076,101.518,216.591,101.596z"/>
						</g>
					</g>
				</g>
				<g>
					<path style="fill:#E0E0E0;" d="M240.349,103.162c-0.03-0.008-0.061-0.015-0.092-0.023c-0.122,5.741-1.286,12.154-5.988,15.916
						c-2.307,1.538-5.501,2.333-8.673,2.222c1.668,0.97,3.613,1.655,5.493,2.275c1.484,0.49,3.094,0.813,4.605,0.412
						c2.476-0.657,4.053-3.038,5.221-5.318c1.819-3.549,3.289-7.228,4.249-11.099C243.862,105.909,242.373,103.699,240.349,103.162z
						"/>
					<path style="fill:#EEEEEE;" d="M222.572,104.007c-1.274-2.579-2.678-5.09-4.221-7.518c-0.344-0.542-0.875-0.192-0.528,0.354
						c1.631,2.568,2.778,5.378,4.109,8.113c-0.999,2.496-1.379,5.226-1.145,7.902c-1.62-2.291-3.048-4.715-4.249-7.255
						c-0.275-0.581-1.137-0.075-0.863,0.505c1.483,3.137,3.317,6.085,5.424,8.835c0.133,0.619,0.289,1.233,0.494,1.833
						c0.697,2.044,2.185,3.443,4.004,4.502c3.172,0.111,6.365-0.684,8.673-2.222c4.702-3.761,5.866-10.175,5.988-15.916
						C234.339,101.586,228.197,101.634,222.572,104.007z"/>
				</g>
				<g>
					<path style="fill:#212121;" d="M231.79,102.307c-2.762,0-5.009-2.247-5.009-5.009c0-2.762,2.247-5.009,5.009-5.009
						c2.762,0,5.009,2.247,5.009,5.009C236.799,100.059,234.552,102.307,231.79,102.307z M231.79,93.289
						c-2.211,0-4.009,1.798-4.009,4.009c0,2.21,1.798,4.009,4.009,4.009c2.211,0,4.009-1.798,4.009-4.009
						C235.799,95.087,234.001,93.289,231.79,93.289z"/>
				</g>
				<g>
					<path style="fill:#212121;" d="M244.767,105.47c-2.762,0-5.009-2.246-5.009-5.008c0-2.762,2.247-5.009,5.009-5.009
						c2.762,0,5.008,2.247,5.008,5.009C249.774,103.224,247.528,105.47,244.767,105.47z M244.767,96.453
						c-2.211,0-4.009,1.798-4.009,4.009c0,2.21,1.798,4.008,4.009,4.008c2.21,0,4.008-1.798,4.008-4.008
						C248.774,98.251,246.977,96.453,244.767,96.453z"/>
				</g>
				<g>
					<path style="fill:#212121;" d="M240.599,98.043c-0.97-1.216-2.742-1.733-4.214-1.228l-0.324-0.946
						c1.855-0.635,4.094,0.015,5.319,1.55L240.599,98.043z"/>
				</g>
				<g>
					<polygon style="fill:#212121;" points="227.745,95.877 217.809,95.731 216.036,94.731 227.759,94.877 					"/>
				</g>
			</g>
		</g>
		<g>
			<path style="fill:#546E7A;" d="M229.665,337.852h-84.32c-8.287,0-15.029-6.742-15.029-15.029V308.7c0-0.828,0.672-1.5,1.5-1.5
				c0.828,0,1.5,0.672,1.5,1.5v14.122c0,6.633,5.397,12.029,12.029,12.029h84.32c0.828,0,1.5,0.672,1.5,1.5
				S230.493,337.852,229.665,337.852z"/>
		</g>
		<path style="fill:#211714;" d="M145.683,321.545c-7.264-8.166-14.528-16.333-21.792-24.499c-1.285-1.444-3.327,0.755-2.052,2.188
			c7.264,8.166,14.528,16.333,21.792,24.499C144.915,325.177,146.958,322.979,145.683,321.545z"/>
		<g>
			<g>
				<path style="fill:#FFAB91;" d="M149.327,308.199c-1.515,1.32-2.992,2.599-4.417,3.819l-6.268-7.162l4.044-4.246L149.327,308.199
					z"/>
				<g>
					<g>
						<path style="fill:#015369;" d="M154.112,307.194l-6.46-8.144c-4.686,0.183-19.512-10.097-23.948-7.653l22.096,26.008
							C148.921,314.256,151.733,310.852,154.112,307.194z"/>
						<path style="fill:#EEEEEE;" d="M123.704,291.398c-0.425,0.234-0.851,0.465-1.267,0.718c-0.653,0.396-0.893,1.205-0.487,1.683
							l21.086,24.819c0.371,0.437,1.124,0.401,1.628-0.086c0.384-0.371,0.762-0.748,1.137-1.126L123.704,291.398z"/>
					</g>
					<path style="fill:#353535;" d="M271.16,239.378c-3.566-6.581-11.529-9.413-18.465-6.6l-4.563,1.85
						c-15.846,6.426-34.279,4.519-51.514,6.043c-3.455,0.305-6.623,2.05-8.704,4.825c-12.699,16.938-26.77,34.674-39.221,51.467
						c2.974,3.155,5.841,6.701,8.816,9.855c15.407-8.193,28.366-21.943,36.219-37.663c1.517-3.038,4.724-4.836,8.104-4.509
						c17.846,1.723,66.345,3.082,69.997-1.87c2.994-4.06,3.537-14.047,1.608-18.708C272.866,242.686,272.077,241.068,271.16,239.378
						z"/>
					<path style="fill:#353535;" d="M194.27,263.055c-2-1-5-2-7-3c22,5,44-2,66-3c-2.729-7.277-5.466-14.545-8.948-21.07
						c-14.948,4.772-31.831,3.282-47.703,4.686c-3.455,0.305-6.623,2.05-8.704,4.825c-12.699,16.938-26.77,34.674-39.221,51.467
						c1.593,1.689,3.155,3.489,4.719,5.282C170.905,295.55,183.213,278.06,194.27,263.055z"/>
					<path style="fill:#262626;" d="M273.438,244.068c-0.572-1.381-1.361-2.999-2.278-4.69c-3.566-6.581-11.529-9.413-18.465-6.6
						l-4.563,1.85c-1.253,0.508-2.527,0.947-3.811,1.357c3.482,6.524,6.219,13.793,8.948,21.07c-22,1-44,8-66,3c2,1,5,2,7,3
						c-11.056,15.005-23.365,32.495-40.857,39.19c1.357,1.556,2.715,3.108,4.097,4.573c15.407-8.193,28.366-21.943,36.219-37.663
						c1.517-3.038,4.724-4.836,8.104-4.509c17.846,1.723,66.345,3.082,69.997-1.87C274.824,258.716,275.367,248.728,273.438,244.068
						z"/>
				</g>
				<polygon style="fill:#FFAB91;" points="147.652,299.05 149.327,297.643 156.455,305.68 154.112,307.194 				"/>
			</g>
			<path style="fill:#284B63;" d="M318.665,201.252c-9.982-2.703-17.707,1.457-25.702,7.588c-4.338,3.327-10.182,8.26-14.295,11.826
				c-5.227,4.532-27.74,9.202-29.555,11.798c-1.742,2.49,0.065,4.594,1.115,7.415c2.292,6.162,3.945,11.774,6.925,17.79
				c1.773,3.58,2.894,4.642,5.39,7.536c3.257,0.344,15.788,1.272,18.781,0.045c15.34-6.288,23.95-17.92,35.747-29
				c5.023-4.718,14.41-16.935,16.074-23.411C334.809,206.363,325.541,203.113,318.665,201.252z"/>
			<path style="fill:#284B63;" d="M254.27,241.055c1,8,7,19,9,19c28.703-0.776,54.39-24.423,69.606-50.861
				c-1.833-4.124-8.768-6.469-14.211-7.942c-9.982-2.703-17.707,1.457-25.702,7.588c-4.338,3.327-10.182,8.26-14.295,11.826
				c-5.227,4.532-27.74,9.202-29.555,11.798c-1.742,2.49,0.065,4.594,1.115,7.415c1.067,2.868,1.998,5.615,2.986,8.341
				C253.082,245.75,253.371,243.302,254.27,241.055z"/>
			<path style="fill:#1D3647;" d="M263.27,260.055c-2,0-8-11-9-19c-0.899,2.247-1.188,4.695-1.057,7.164
				c1.135,3.131,2.347,6.233,3.94,9.449c1.773,3.58,2.894,4.642,5.39,7.536c3.257,0.344,15.788,1.272,18.781,0.045
				c15.34-6.288,23.95-17.92,35.747-29c5.023-4.718,14.41-16.936,16.074-23.411c0.347-1.35,0.213-2.558-0.27-3.645
				C317.66,235.632,291.973,259.279,263.27,260.055z"/>
			<g>
				<g>
					<path style="fill:#382C28;" d="M329.252,171.031c0.156-2.195,1.163-4.318,2.764-5.827c0.727-0.685,1.637-1.268,2.636-1.266
						c0.199-1.215,0.774-2.237,1.635-3.117c0.762-0.778,1.803-1.36,2.89-1.299c1.087,0.061,2.158,0.916,2.206,2.004
						c0.988-1.891,2.977-3.263,5.088-3.566c1.023-0.147,2.118-0.042,2.994,0.507c1.542,0.965,2.004,2.963,2.331,4.753
						c1.792-1.229,4.56-1.027,6.08,0.526c1.52,1.554,1.723,4.221,0.457,5.987c0.975-0.174,2.199-0.077,2.803,0.708
						c0.605,0.785,0.83,1.813,0.788,2.803c-0.078,1.817-1.051,3.575-2.549,4.605c1.303,1.092,1.977,3.047,1.321,4.616
						c-0.65,1.553-2.186,2.533-3.7,3.267c-0.305,0.148-0.634,0.294-0.97,0.253c-0.337-0.04-0.665-0.345-0.602-0.679
						c0.219,1.641-0.521,3.127-1.729,4.258c-1.208,1.131-2.777,1.801-4.362,2.277c-3.216,0.965-6.644,1.213-9.965,0.723
						L329.252,171.031z"/>
					<path style="fill:#211714;" d="M329.358,172.25c0.148-2.078,1.101-4.088,2.616-5.516c0.688-0.649,1.55-1.2,2.495-1.199
						c0.189-1.151,0.732-2.118,1.548-2.951c0.722-0.737,1.707-1.287,2.736-1.23c1.03,0.057,2.043,0.867,2.089,1.898
						c0.936-1.79,2.819-3.089,4.817-3.376c0.969-0.139,2.005-0.04,2.835,0.48c1.46,0.914,1.897,2.805,2.207,4.5
						c1.696-1.164,4.317-0.973,5.756,0.498c1.439,1.471,1.631,3.996,0.432,5.668c0.923-0.165,2.082-0.073,2.654,0.67
						c0.573,0.743,0.786,1.717,0.746,2.654c-0.074,1.721-0.995,3.384-2.413,4.359c1.233,1.034,1.871,2.885,1.25,4.37
						c-0.615,1.47-2.069,2.398-3.502,3.093c-0.289,0.14-0.6,0.278-0.919,0.24c-0.319-0.038-0.629-0.327-0.57-0.643
						c0.207,1.554-0.493,2.96-1.637,4.031c-1.144,1.071-2.629,1.705-4.13,2.155c-3.044,0.913-6.29,1.149-9.434,0.684L329.358,172.25
						z"/>
					<g>
						<g>
							<path style="fill:#FFAB91;" d="M340.82,195.517c-4.8-1.993-9.82-2.99-14.915-1.965c-2.479,3.057-4.89,5.747-7.592,8.441
								c-0.081,0.081-0.146,0.171-0.216,0.259c4.288,1.671,8.468,4.844,13.241,5.427
								C334.036,203.932,337.564,198.793,340.82,195.517z"/>
							<path style="fill:#FF8A65;" d="M325.905,193.552c5.095-1.025,10.114-0.028,14.915,1.965c-1.094,1.101-2.156,2.232-3.19,3.389
								c-5.42,1.794-11.984,2.671-17.462,1.169C322.143,198.002,324.012,195.887,325.905,193.552z"/>
						</g>
						<g>
							<path style="fill:#FFAB91;" d="M330.131,169.422c-7.347,6.627-17.432,18.305-8.513,26.094
								c5.569,4.864,12.134,3.924,18.233-0.255c-0.105,0.072,0.228,0.962,0.907,1.474c0.67,0.505,2.156,0.473,2.951,0.247
								c1.534-0.437,3.56-1.429,3.817-3.203c0.309-2.134-1.383-4.063-3.588-3.123c2.762-3.108,4.012-7.033,5.446-10.937
								c-2.756-5.845-8.835-11.177-14.966-13.212C333.129,167.113,331.189,168.468,330.131,169.422z"/>
							<path style="fill:#211714;" d="M338.816,175.834c2.431-0.771,5.248,2.811,5.849,4.774c0.11,0.359,0.233,0.806-0.03,1.13
								c-0.136,0.168-0.339,0.256-0.553,0.186c-0.485-0.159-0.642-0.759-0.861-1.165c-0.289-0.538-0.643-1.036-1.061-1.481
								c-0.516-0.549-1.122-1.014-1.787-1.368c-0.643-0.343-1.407-0.454-1.951-0.955
								C337.998,176.563,338.389,175.97,338.816,175.834z"/>
							<path style="fill:#211714;" d="M330.19,170.113c0.757-0.304,1.609-0.06,2.327,0.292c0.699,0.343,1.303,0.823,1.752,1.462
								c0.207,0.294,0.132,0.707-0.128,0.937c-0.443,0.392-0.832,0.081-1.186-0.219c-0.478-0.405-0.981-0.733-1.582-0.928
								c-0.403-0.131-2.617-0.697-1.461-1.405C330.002,170.197,330.095,170.151,330.19,170.113z"/>
							<path style="fill:#FF8A65;" d="M323.26,191.603c0.274,0.117,0.488,0.414,0.714,0.607c0.204,0.174,0.469,0.373,0.663,0.495
								c0.245,0.155,0.503,0.295,0.763,0.422c0.285,0.139,0.594,0.222,0.821,0.453c0.24,0.244,0.11,0.586-0.21,0.653
								c-0.345,0.073-0.679-0.077-0.996-0.203c-0.3-0.119-0.585-0.264-0.86-0.434c-0.286-0.177-0.564-0.367-0.824-0.58
								c-0.265-0.217-0.62-0.479-0.735-0.81C322.453,191.801,322.879,191.44,323.26,191.603z"/>
							<path style="fill:#FF8A65;" d="M342.156,193.974c0.164,0.274,0.588,0.433,0.869,0.209c0.143-0.114,0.169-0.287,0.175-0.466
								c0.006-0.173-0.065-0.336-0.183-0.44c-0.187-0.164-0.177-0.471,0.033-0.613c0.888-0.598,2.197-0.867,3.026-0.007
								c0.367,0.381,0.539,0.919,0.392,1.437c-0.069,0.242-0.214,0.448-0.419,0.593c-0.118,0.083-0.487,0.245-0.522-0.021
								c-0.021-0.159,0.111-0.256,0.171-0.387c0.064-0.139,0.108-0.286,0.125-0.439c0.034-0.311-0.131-0.58-0.38-0.754
								c-0.5-0.348-1.104-0.236-1.618,0.02c0.256,0.54,0.133,1.224-0.396,1.59c-0.573,0.397-1.443,0.236-1.82-0.35
								C341.376,193.988,341.937,193.608,342.156,193.974z"/>
						</g>
					</g>
					<path style="fill:#FF8A65;" d="M331.196,176.775c-2.169,0.016-4.469,0.713-5.796,2.538c-1.202,1.653-1.262,3.968,0.2,5.486
						c0.388,0.403,0.943-0.266,0.558-0.665c-1.207-1.254-0.947-3.243,0.093-4.501c1.226-1.483,3.169-1.978,5.021-1.992
						C331.831,177.637,331.752,176.771,331.196,176.775z"/>
					<g>
						<path style="fill:#610D25;" d="M330.55,192.368c0.058-0.151,0.106-0.307,0.13-0.465c0.109-0.713-0.086-1.441-0.376-2.102
							c-0.036-0.082-0.073-0.163-0.112-0.244c-0.312-0.644-0.723-1.24-1.207-1.766c-0.487-0.53-1.048-0.991-1.662-1.367
							c-0.61-0.374-1.272-0.665-1.962-0.853c-0.308-0.084-0.661-0.199-0.982-0.126c-0.326,0.075-0.676,0.204-0.977,0.349
							c-0.65,0.313-1.192,0.857-1.473,1.524c-0.399,0.947-0.247,2.096,0.361,2.922C325.581,187.888,328.444,189.859,330.55,192.368z
							"/>
						<path style="fill:#8C1335;" d="M322.291,190.239c0.039,0.053,0.074,0.11,0.117,0.16c0.534,0.625,1.296,0.999,2.037,1.355
							c0.91,0.439,1.821,0.877,2.732,1.316c0.704,0.339,1.496,0.687,2.242,0.452c0.535-0.168,0.929-0.625,1.132-1.155
							C328.444,189.859,325.581,187.888,322.291,190.239z"/>
					</g>
				</g>
				<path style="fill:#3B1411;" d="M339.324,181.934c-0.031-0.003-0.036-0.003-0.042-0.004c-0.009-0.002-0.007-0.002-0.025-0.005
					c-0.05-0.009-0.099-0.017-0.149-0.027c-0.082-0.017-0.164-0.036-0.246-0.057c-0.097-0.026-0.194-0.056-0.289-0.089
					c-0.04-0.014-0.079-0.028-0.118-0.044c-0.023-0.009-0.106-0.043-0.044-0.016c-0.17-0.072-0.335-0.159-0.494-0.254
					c-0.087-0.052-0.172-0.107-0.255-0.165c-0.035-0.024-0.069-0.049-0.103-0.074c-0.027-0.021-0.027-0.02,0.001,0.001
					c-0.02-0.016-0.04-0.031-0.059-0.048c-0.271-0.221-0.558-0.525-0.713-0.745c-0.107-0.151-0.204-0.309-0.289-0.473
					c-0.04-0.077-0.077-0.155-0.112-0.234c-0.006-0.017-0.033-0.084-0.033-0.084c-0.018-0.047-0.034-0.095-0.05-0.143
					c-0.086-0.256-0.344-0.424-0.615-0.349c-0.25,0.069-0.436,0.358-0.349,0.615c0.586,1.743,2.165,2.99,3.985,3.193
					c0.269,0.03,0.5-0.251,0.5-0.5C339.824,182.138,339.594,181.964,339.324,181.934z"/>
				<path style="fill:#3B1411;" d="M330.368,176.255c-0.081-0.251-0.348-0.432-0.615-0.349c-0.06,0.019-0.121,0.036-0.183,0.049
					c-0.032,0.007-0.064,0.013-0.096,0.019c-0.021-0.008-0.18,0.013-0.201,0.013c-0.063,0.001-0.126-0.001-0.188-0.005
					c-0.03-0.002-0.061-0.005-0.091-0.008c-0.001,0,0,0-0.001,0c-0.062-0.013-0.124-0.023-0.185-0.038
					c-0.067-0.017-0.134-0.036-0.2-0.058c-0.028-0.01-0.123-0.051-0.128-0.052c-0.101-0.05-0.202-0.099-0.297-0.16
					c-0.042-0.027-0.082-0.056-0.123-0.086c-0.004-0.005-0.086-0.072-0.105-0.09c-0.046-0.043-0.091-0.087-0.133-0.133
					c-0.026-0.028-0.05-0.056-0.074-0.085c-0.002-0.002-0.001-0.001-0.003-0.003c-0.074-0.111-0.144-0.22-0.202-0.34
					c-0.114-0.236-0.47-0.318-0.684-0.179c-0.242,0.156-0.301,0.431-0.179,0.684c0.576,1.194,2.08,1.828,3.34,1.437
					C330.268,176.793,330.453,176.518,330.368,176.255z"/>
			</g>
			<g>
				<g>
					<g>
						<path style="fill:#FFAB91;" d="M256.131,234.553c12.056-2.518,21.819-4.804,30.283-3.205c1.68,3.071,2.695,6.671,2.56,10.169
							c-9.405,2.547-22.796,3.243-32.996,0.632c-1.605-0.411-3.134-0.901-4.552-1.481l-0.641-5.025
							C252.616,235.282,254.397,234.915,256.131,234.553z"/>
						<g>
							<path style="fill:#FFAB91;" d="M236.229,234.038c-0.358,0.169-0.72,0.356-0.982,0.652c-0.262,0.297-0.406,0.73-0.259,1.098
								c0.176,0.443,0.713,0.648,1.189,0.609c0.476-0.039,0.912-0.265,1.35-0.454c1.497-0.647,3.162-0.901,4.785-0.731
								c0.837,0.088,1.667,0.286,2.508,0.25c2.904-0.125,3.151-3.491,0.052-3.482C241.917,231.988,238.886,232.778,236.229,234.038z
								"/>
							<path style="fill:#FFAB91;" d="M236.235,236.912c-0.358,0.17-0.72,0.356-0.982,0.653c-0.262,0.296-0.406,0.73-0.259,1.098
								c0.176,0.443,0.713,0.648,1.189,0.609c0.475-0.039,0.912-0.265,1.35-0.454c1.497-0.647,3.163-0.901,4.785-0.731
								c0.837,0.088,1.667,0.286,2.508,0.25c2.904-0.125,3.151-3.491,0.052-3.482C241.923,234.863,238.892,235.653,236.235,236.912z
								"/>
							<path style="fill:#FFAB91;" d="M238.07,239.025c-0.358,0.169-0.72,0.356-0.982,0.652c-0.262,0.297-0.406,0.73-0.259,1.098
								c0.176,0.443,0.713,0.648,1.189,0.609c0.475-0.039,0.912-0.265,1.35-0.454c1.498-0.647,3.163-0.901,4.785-0.731
								c0.837,0.088,1.667,0.286,2.508,0.25c2.904-0.125,3.151-3.491,0.052-3.482C243.758,236.976,240.728,237.766,238.07,239.025z"
								/>
							<path style="fill:#FFAB91;" d="M240.678,240.73c-0.292,0.138-0.588,0.29-0.802,0.533c-0.214,0.242-0.331,0.596-0.212,0.896
								c0.144,0.362,0.582,0.529,0.971,0.497s0.745-0.216,1.102-0.371c1.223-0.528,2.582-0.736,3.906-0.597
								c0.683,0.072,1.361,0.234,2.048,0.204c2.371-0.102,2.572-2.85,0.042-2.843C245.322,239.057,242.848,239.702,240.678,240.73z"
								/>
							<path style="fill:#FFAB91;" d="M245.249,231.997c1.8,0.283,2.828,0.571,4.482,1.334c1.654,0.763,3.148,2.05,3.762,3.766
								c0.614,1.715,0.155,3.868-1.348,4.899c-0.895,0.614-2.038,0.776-3.119,0.679c-2.239-0.2-4.355-1.488-5.56-3.385
								c-1.205-1.897-1.472-4.36-0.701-6.471L245.249,231.997z"/>
						</g>
					</g>
					<g>
						<path style="fill:#FFAB91;" d="M298.676,215.603c-3.416,2.989-15.325,15.549-16.459,17.872
							c-1.134,2.324,3.452,8.625,5.712,8.25c1.589-0.264,2.897-1.687,4.504-2.441c4.933-2.316,10.128-6.479,14.479-9.766
							L298.676,215.603z"/>
						<path style="fill:#284B63;" d="M304.27,228.055c7.907-2.636,13.59-8.051,18.223-14.633c0.318-2.481-0.251-5.054-1.806-7.185
							c-0.018-0.024-0.036-0.049-0.054-0.073c-0.901-1.215-1.996-2.084-3.24-2.58c-1.211-0.483-2.563-0.612-4.021-0.35
							c-0.444,0.08-0.878,0.194-1.307,0.324c-1.636,1.15-3.108,2.372-3.902,2.913c-3.741,2.55-6.816,5.782-10.522,8.383
							c-0.934,0.655-2.402,2.036-2.814,3.1c-0.53,1.367-0.135,1.575,0.472,2.909c0.221,0.487,0.452,0.969,0.689,1.448
							c0.474,0.962,1.211,2.117,2.067,3.304c-0.417-0.853-0.784-1.706-0.784-2.559C299.27,226.055,301.27,229.055,304.27,228.055z"
							/>
						<path style="fill:#1D3647;" d="M304.27,228.055c-3,1-5-2-7-5c0,0.853,0.367,1.706,0.784,2.559
							c2.431,3.369,5.844,7.002,7.109,7.266c0.043,0.009,8.628-7.335,14.514-13.525c1.587-1.669,2.538-3.766,2.815-5.933
							C317.859,220.003,312.177,225.419,304.27,228.055z"/>
					</g>
				</g>
				<path style="fill:#1D3647;" d="M304.671,207.863c-3.788,3.08-7.262,6.529-10.37,10.294c-0.407,0.493,0.297,1.204,0.707,0.707
					c3.108-3.765,6.582-7.214,10.37-10.294C305.878,208.164,305.167,207.46,304.671,207.863z"/>
			</g>
		</g>
		<g>
			<path style="fill:#A3A3A3;" d="M462.169,453.126c-4.96-2.606-10.434-2.494-15.706-1.009c-6.323,1.781-12.031,5.23-18.208,7.422
				c-6.104,2.167-13.047,3.243-18.944-0.138c-4.754-2.725-8.051-7.392-11.961-11.166c-4.045-3.905-8.82-6.378-14.36-6.974
				c-12.227-1.316-23.309,5.307-33.128,11.966c-9.782,6.634-19.907,13.882-32.068,13.965c-5,0.034-10.131-1.127-14.272-4.133
				c-4.687-3.402-7.192-8.824-8.099-14.548c-0.974-6.15-0.368-12.445,0.122-18.612c0.599-7.543,1.198-15.086,1.797-22.629
				c1.188-14.96,2.376-29.921,3.565-44.881c1.193-15.023,2.387-30.047,3.58-45.07c0.926-11.652,2.775-24.541-1.896-35.628
				c-1.041-2.471-2.436-4.749-4.152-6.778c-0.411-0.486-1.093,0.224-0.684,0.707c7.651,9.049,7.252,22.108,6.423,33.355
				c-1.086,14.731-2.335,29.45-3.504,44.174c-1.188,14.961-2.376,29.921-3.565,44.881c-0.594,7.48-1.188,14.961-1.782,22.441
				c-0.533,6.709-1.313,13.458-1.371,20.195c-0.049,5.727,0.577,11.71,3.369,16.77c2.464,4.466,6.473,7.658,11.158,9.3
				c4.711,1.651,9.845,1.784,14.726,0.98c5.582-0.919,10.762-3.273,15.655-6.132c10.751-6.281,20.329-15.089,32.54-18.292
				c5.631-1.477,11.724-1.784,17.251,0.314c5.376,2.04,9.087,6.425,12.975,10.549c3.843,4.076,8.073,7.558,13.716,8.276
				c6.263,0.797,12.497-1.436,18.163-3.96c6.044-2.692,12.151-5.956,18.836-6.411c5.065-0.345,10.459,1.482,13.873,5.487
				c1.599,1.875,6.159,8.715,6.254,11.221c0.024,0.641,0.992,0.645,0.968,0C473.25,463.787,466.329,455.312,462.169,453.126z"/>
			<g>
				<g>
					<rect x="246.064" y="389.395" style="fill:#BFBFBF;" width="13.839" height="57.328"/>
					<path style="fill:#A3A3A3;" d="M259.903,367.22c0-0.33-0.268-0.598-0.598-0.598h-12.643c-0.33,0-0.598,0.268-0.598,0.598
						v22.175h13.839V367.22z"/>
				</g>
				<path style="fill:#A3A3A3;" d="M264.954,348.231c0-3.648-2.957-6.605-6.605-6.605h-10.73c-3.648,0-6.605,2.957-6.605,6.605
					v6.838h23.941V348.231z"/>
				<path style="fill:#BFBFBF;" d="M241.013,355.069v21.15c0,3.648,2.957,6.605,6.605,6.605h10.73c3.648,0,6.605-2.957,6.605-6.605
					v-21.15H241.013z"/>
				<path style="fill:#D9D9D9;" d="M288.897,463.331l-28.488-16.318c-0.331-0.19-0.707-0.29-1.089-0.29h-12.673
					c-0.382,0-0.757,0.1-1.089,0.29l-28.488,16.318c-0.031,0.018-0.056,0.04-0.086,0.059h71.998
					C288.953,463.371,288.928,463.349,288.897,463.331z"/>
				<path style="fill:#BFBFBF;" d="M288.982,463.39h-71.998c-1.831,1.155-1.035,4.032,1.174,4.032h69.65
					C290.017,467.422,290.813,464.545,288.982,463.39z"/>
				<g>
					<path style="fill:#D9D9D9;" d="M204.389,284.846l18.788,52.097c2.514,6.972,9.13,11.619,16.542,11.619h26.369
						c7.701,0,14.505-5.01,16.791-12.363l18.606-59.839L204.389,284.846z"/>
					<path style="fill:#D9D9D9;" d="M207.191,292.617l15.985,44.326c2.514,6.972,9.13,11.619,16.542,11.619h26.369
						c7.7,0,14.505-5.01,16.791-12.363l13.551-43.581H207.191z"/>
					<path style="fill:#BFBFBF;" d="M214.433,283.609l14.901,44.506c1.994,5.956,7.241,9.926,13.119,9.926h20.914
						c6.107,0,11.504-4.28,13.317-10.562l14.756-51.12L214.433,283.609z"/>
					<polygon style="opacity:0.57;fill:#A3A3A3;" points="301.484,276.36 204.389,284.846 207.191,292.617 296.429,292.617 					"/>
				</g>
			</g>
			<g>
				<path style="fill:#211714;" d="M374.422,196.24l-9.248,14.123c-3.329,5.084-10.15,6.507-15.234,3.178h0
					c-5.084-3.329-6.507-10.15-3.178-15.234l9.248-14.123c3.329-5.084,10.15-6.507,15.234-3.178l0,0
					C376.328,184.336,377.751,191.156,374.422,196.24z"/>
				<path style="fill:#211714;" d="M286.715,287.363h-80.938c-6.077,0-11.004-4.927-11.004-11.004l0,0
					c0-6.077,4.927-11.004,11.004-11.004h80.938c6.077,0,11.004,4.926,11.004,11.004l0,0
					C297.719,282.437,292.792,287.363,286.715,287.363z"/>
				<path style="fill:#211714;" d="M357.417,221.073l-54.132,60.172c-4.064,4.518-11.022,4.886-15.54,0.821h0
					c-4.518-4.064-4.886-11.022-0.821-15.54l54.132-60.172c4.065-4.518,11.022-4.886,15.54-0.821l0,0
					C361.114,209.598,361.482,216.555,357.417,221.073z"/>
			</g>
			<g>
				<g>
					<path style="fill:#D9D9D9;" d="M285.455,259.107v13.498c0,5.096-4.146,9.241-9.241,9.241h-29.412
						c-5.096,0-9.241-4.146-9.241-9.241v-13.498h-3v13.498c0,6.75,5.491,12.241,12.241,12.241h29.412
						c6.75,0,12.241-5.491,12.241-12.241v-13.498H285.455z"/>
					<path style="fill:#BFBFBF;" d="M237.561,258.107c0-5.096,4.145-9.241,9.241-9.241h29.412c5.096,0,9.241,4.146,9.241,9.241v1h3
						v-1c0-6.75-5.491-12.241-12.241-12.241h-29.412c-6.75,0-12.241,5.491-12.241,12.241v1h3V258.107z"/>
				</g>
				<path style="fill:#211714;" d="M292.521,251.251h-59.957c-2.871,0-5.198-2.327-5.198-5.198l0,0c0-2.871,2.327-5.198,5.198-5.198
					h59.957c2.871,0,5.198,2.327,5.198,5.198l0,0C297.719,248.924,295.392,251.251,292.521,251.251z"/>
			</g>
		</g>
		<g>
			<path style="fill:#D9D9D9;" d="M301.086,98.589c0,2.335-1.893,4.227-4.228,4.227c-2.335,0-4.227-1.893-4.227-4.227
				c0-2.335,1.893-4.227,4.227-4.227C299.193,94.361,301.086,96.254,301.086,98.589z"/>
			<path style="fill:#BFBFBF;" d="M300.493,98.958c0,1.884-1.528,3.412-3.412,3.412c-1.884,0-3.412-1.527-3.412-3.412
				s1.527-3.412,3.412-3.412C298.966,95.546,300.493,97.074,300.493,98.958z"/>
			<g>
				<path style="fill:#D9D9D9;" d="M321.174,103.723l-0.103-0.451l-43.253,9.892l0.103,0.451c0.125,0.547,0.362,1.037,0.677,1.46
					l42.643-10.153C321.274,104.529,321.267,104.128,321.174,103.723z"/>
				<path style="fill:#FFE082;" d="M278.598,115.075c0.9,1.211,2.456,1.846,4.021,1.488l35.607-8.143
					c1.707-0.39,2.877-1.842,3.016-3.498L278.598,115.075z"/>
				<path style="fill:#BFBFBF;" d="M316.705,103.598c-1.153-5.043-5.379-8.378-9.438-7.45l-20.115,4.6
					c-4.059,0.928-6.414,5.769-5.261,10.812l0.146,0.639l34.813-7.962L316.705,103.598z"/>
				<path style="fill:#D9D9D9;" d="M313.04,104.579c-0.908-3.972-4.237-6.599-7.434-5.868l-15.844,3.623
					c-3.197,0.731-5.052,4.544-4.144,8.516l0.115,0.503l27.421-6.271L313.04,104.579z"/>
			</g>
		</g>
		<g>
			<circle style="fill:#D9D9D9;" cx="266.814" cy="55.036" r="4.227"/>
			<circle style="fill:#BFBFBF;" cx="267.038" cy="55.405" r="3.412"/>
		</g>
		<g>
			<path style="fill:#D9D9D9;" d="M210.261,55.036c0,2.335-1.893,4.227-4.227,4.227c-2.335,0-4.227-1.893-4.227-4.227
				c0-2.335,1.893-4.227,4.227-4.227C208.368,50.809,210.261,52.701,210.261,55.036z"/>
			<circle style="fill:#BFBFBF;" cx="206.257" cy="55.405" r="3.412"/>
		</g>
	</g>
	<path style="fill:#211714;" d="M476.256,472.155H19.92c-1.307,0-2.366-1.059-2.366-2.366l0,0c0-1.307,1.059-2.366,2.366-2.366
		h456.336c1.307,0,2.366,1.059,2.366,2.366l0,0C478.622,471.095,477.563,472.155,476.256,472.155z"/>
</g>
</svg>
